<?xml version="1.0" encoding="utf-8"?>
<!-- Generator: Adobe Illustrator 24.1.3, SVG Export Plug-In . SVG Version: 6.00 Build 0)  -->
<svg version="1.1" id="Layer_1" xmlns="http://www.w3.org/2000/svg" xmlns:xlink="http://www.w3.org/1999/xlink" x="0px" y="0px"
	 viewBox="0 0 25 16" style="enable-background:new 0 0 25 16;" xml:space="preserve">
<style type="text/css">
	.st0{fill:#FFFFFF;}
</style>
<path class="st0" d="M23.7,0L1.3,0C0.6,0,0,0.6,0,1.3l0,0.3c0,0.7,0.6,1.3,1.3,1.3h22.5c0.7,0,1.3-0.6,1.3-1.3V1.3
	C25,0.6,24.4,0,23.7,0z"/>
<path class="st0" d="M23.7,6.6H1.3C0.6,6.6,0,7.2,0,7.9l0,0.3c0,0.7,0.6,1.3,1.3,1.3h22.5c0.7,0,1.3-0.6,1.3-1.3V7.9
	C25,7.2,24.4,6.6,23.7,6.6z"/>
<path class="st0" d="M23.7,13.2H1.3c-0.7,0-1.3,0.6-1.3,1.3l0,0.3C0,15.4,0.6,16,1.3,16h22.5c0.7,0,1.3-0.6,1.3-1.3v-0.3
	C25,13.7,24.4,13.2,23.7,13.2z"/>
</svg>
